<?xml version="1.0" encoding="utf-8"?>
<!-- Generator: Adobe Illustrator 15.1.0, SVG Export Plug-In . SVG Version: 6.00 Build 0)  -->
<!DOCTYPE svg PUBLIC "-//W3C//DTD SVG 1.1//EN" "http://www.w3.org/Graphics/SVG/1.1/DTD/svg11.dtd">
<svg version="1.1" id="ModelSketch_x5F_Visible" xmlns="http://www.w3.org/2000/svg" xmlns:xlink="http://www.w3.org/1999/xlink"
	 x="0px" y="0px" width="338.33px" height="272.89px" viewBox="0 0 338.33 272.89" enable-background="new 0 0 338.33 272.89"
	 xml:space="preserve">
<g id="Diamonds">
	<g>
		<path fill="#231F20" d="M287.97,21.89l-11.52,8.23l11.52,24.7l11.52-24.7L287.97,21.89z M287.22,50.92l-8.96-19.21l10.88-7.78
			l8,5.72L287.22,50.92z"/>
	</g>
	<g>
		<path fill="#231F20" d="M287.97,56.47l-11.52,24.7l11.52,8.23l11.52-8.23L287.97,56.47z M286.8,87.37l-8-5.72l9.92-21.27
			l8.96,19.21L286.8,87.37z"/>
	</g>
	<g>
		<path fill="#231F20" d="M313.43,44.19l-24.7,11.52l24.7,11.52l8.23-11.52L313.43,44.19z M311.86,65.42l-19.21-8.96l21.27-9.92
			l5.72,8L311.86,65.42z"/>
	</g>
	<g>
		<path fill="#231F20" d="M262.5,44.07l-8.23,11.52l8.23,11.52l24.7-11.52L262.5,44.07z M256.3,54.42l5.72-8l21.27,9.92l-19.21,8.96
			L256.3,54.42z"/>
	</g>
	<text transform="matrix(1 0 0 1 278.2305 16.4424)" font-family="'Arial-BoldMT'" font-size="18">I/J</text>
	<text transform="matrix(1 0 0 1 325.3335 59.6343)" font-family="'Arial-BoldMT'" font-size="18">K</text>
	<text transform="matrix(1 0 0 1 282.333 106.1089)" font-family="'Arial-BoldMT'" font-size="18">L</text>
	<text transform="matrix(1 0 0 1 239 59.6343)" font-family="'Arial-BoldMT'" font-size="18">M</text>
</g>
<g id="Triangles">
	<g>
		<path fill="#231F20" d="M158.24,56.46l-15.11,32.4h30.22L158.24,56.46z M158.24,59.47l12.27,26.32h-24.55L158.24,59.47z"/>
	</g>
	<g>
		<path fill="#231F20" d="M124.84,40.19v30.22l32.4-15.11L124.84,40.19z M127.9,43.03l26.32,12.27L127.9,67.57V43.03z"/>
	</g>
	<g>
		<path fill="#231F20" d="M159.24,55.46l32.4,15.11V40.35L159.24,55.46z M188.58,67.73l-26.32-12.27l26.32-12.27V67.73z"/>
	</g>
	<g>
		<path fill="#231F20" d="M143.13,21.9l15.11,32.4l15.11-32.4H143.13z M145.96,24.96h24.55l-12.27,26.32L145.96,24.96z"/>
	</g>
	<text transform="matrix(1 0 0 1 150.7373 16.4424)" font-family="'Arial-BoldMT'" font-size="18">H</text>
	<text transform="matrix(1 0 0 1 194.3335 59.6343)" font-family="'Arial-BoldMT'" font-size="18">F</text>
	<text transform="matrix(1 0 0 1 151.333 106.1089)" font-family="'Arial-BoldMT'" font-size="18">G</text>
	<text transform="matrix(1 0 0 1 109 59.6343)" font-family="'Arial-BoldMT'" font-size="18">E</text>
	<text transform="matrix(1 0 0 1 175.438 140.3965)" font-family="'Arial-BoldMT'" font-size="18">N</text>
</g>
<g id="V">
	<g>
		<polygon fill="#231F20" points="14.84,40.19 47.24,55.3 14.84,70.41 14.84,67.03 42.1,54.32 14.84,41.6 		"/>
	</g>
	<g>
		<polygon fill="#231F20" points="59.97,88.86 47.25,61.59 34.53,88.86 33.13,88.86 48.24,56.46 63.34,88.86 		"/>
	</g>
	<g>
		<polygon fill="#231F20" points="81.64,43.72 54.37,56.44 81.64,69.16 81.64,70.56 49.24,55.46 81.64,40.35 		"/>
	</g>
	<g>
		<polygon fill="#231F20" points="63.35,21.9 61.94,21.9 49.22,49.17 36.51,21.9 33.13,21.9 48.24,54.3 		"/>
	</g>
	<text transform="matrix(1 0 0 1 41.7373 15.4424)" font-family="'Arial-BoldMT'" font-size="18">A</text>
	<text transform="matrix(1 0 0 1 85.3335 59.6343)" font-family="'Arial-BoldMT'" font-size="18">B</text>
	<text transform="matrix(1 0 0 1 42.333 105.1089)" font-family="'Arial-BoldMT'" font-size="18">C</text>
	<text transform="matrix(1 0 0 1 0 59.6343)" font-family="'Arial-BoldMT'" font-size="18">D</text>
</g>
<g id="Diamonds_copy">
	<g>
		<path fill="#231F20" d="M289.91,195.38c0-1.07-0.87-1.95-1.95-1.95c-1.07,0-1.94,0.87-1.94,1.95s0.87,1.94,1.94,1.94
			C289.04,197.32,289.91,196.45,289.91,195.38L289.91,195.38z"/>
		<path fill="#231F20" d="M287.97,181.89l-11.52,8.23l11.52,24.7l11.52-24.7L287.97,181.89z M287.22,210.92l-8.96-19.21l10.88-7.78
			l8,5.72L287.22,210.92z"/>
	</g>
	<g>
		<path fill="#231F20" d="M289.91,235.92c0-1.07-0.87-1.94-1.95-1.94c-1.07,0-1.94,0.87-1.94,1.94s0.87,1.94,1.94,1.94
			C289.04,237.86,289.91,236.99,289.91,235.92L289.91,235.92z"/>
		<path fill="#231F20" d="M287.97,216.47l-11.52,24.7l11.52,8.23l11.52-8.23L287.97,216.47z M286.8,247.37l-8-5.72l9.92-21.27
			l8.96,19.21L286.8,247.37z"/>
	</g>
	<g>
		<path fill="#231F20" d="M310.13,215.71c0-1.07-0.87-1.95-1.94-1.95c-1.07,0-1.94,0.87-1.94,1.95s0.87,1.94,1.94,1.94
			C309.25,217.65,310.13,216.78,310.13,215.71L310.13,215.71z"/>
		<path fill="#231F20" d="M313.43,204.19l-24.7,11.52l24.7,11.52l8.23-11.52L313.43,204.19z M311.86,225.42l-19.21-8.96l21.27-9.92
			l5.72,8L311.86,225.42z"/>
	</g>
	<g>
		<path fill="#231F20" d="M269.7,215.59c0-1.07-0.87-1.94-1.95-1.94s-1.94,0.87-1.94,1.94s0.87,1.94,1.94,1.94
			S269.7,216.66,269.7,215.59L269.7,215.59z"/>
		<path fill="#231F20" d="M262.5,204.07l-8.23,11.52l8.23,11.52l24.7-11.52L262.5,204.07z M256.3,214.42l5.72-8l21.27,9.92
			l-19.21,8.96L256.3,214.42z"/>
	</g>
	<text transform="matrix(1 0 0 1 282.2339 176.4424)" font-family="'Arial-BoldMT'" font-size="18">X</text>
	<text transform="matrix(1 0 0 1 325.3335 219.6343)" font-family="'Arial-BoldMT'" font-size="18">Y</text>
	<text transform="matrix(1 0 0 1 282.333 266.1089)" font-family="'Arial-BoldMT'" font-size="18">W</text>
	<text transform="matrix(1 0 0 1 239 219.6343)" font-family="'Arial-BoldMT'" font-size="18">Z</text>
	<text transform="matrix(1 0 0 1 139.7378 152.1021)" font-family="'KnightsTemplar'" font-size="39">N</text>
</g>
<g id="Triangles_copy">
	<g>
		<path fill="#231F20" d="M160.79,241.97c0-1.41-1.14-2.55-2.55-2.55s-2.55,1.14-2.55,2.55c0,1.41,1.14,2.55,2.55,2.55
			S160.79,243.38,160.79,241.97L160.79,241.97z"/>
		<path fill="#231F20" d="M158.24,216.46l-15.11,32.4h30.22L158.24,216.46z M158.24,219.47l12.27,26.32h-24.55L158.24,219.47z"/>
	</g>
	<g>
		<path fill="#231F20" d="M134.27,215.3c0-1.41-1.14-2.55-2.55-2.55s-2.55,1.14-2.55,2.55s1.14,2.55,2.55,2.55
			S134.27,216.71,134.27,215.3L134.27,215.3z"/>
		<path fill="#231F20" d="M124.84,200.19v30.22l32.4-15.11L124.84,200.19z M127.9,203.03l26.32,12.27l-26.32,12.27V203.03z"/>
	</g>
	<g>
		<path fill="#231F20" d="M187.3,215.46c0-1.41-1.14-2.55-2.55-2.55c-1.41,0-2.55,1.14-2.55,2.55s1.14,2.55,2.55,2.55
			C186.16,218.01,187.3,216.86,187.3,215.46L187.3,215.46z"/>
		<path fill="#231F20" d="M159.24,215.46l32.4,15.11v-30.22L159.24,215.46z M188.58,227.73l-26.32-12.27l26.32-12.27V227.73z"/>
	</g>
	<g>
		<path fill="#231F20" d="M160.79,188.79c0-1.41-1.14-2.55-2.55-2.55s-2.55,1.14-2.55,2.55s1.14,2.55,2.55,2.55
			S160.79,190.2,160.79,188.79L160.79,188.79z"/>
		<path fill="#231F20" d="M143.13,181.9l15.11,32.4l15.11-32.4H143.13z M145.96,184.96h24.55l-12.27,26.32L145.96,184.96z"/>
	</g>
	<text transform="matrix(1 0 0 1 151.2339 176.4424)" font-family="'Arial-BoldMT'" font-size="18">S</text>
	<text transform="matrix(1 0 0 1 194.3335 219.6343)" font-family="'Arial-BoldMT'" font-size="18">T</text>
	<text transform="matrix(1 0 0 1 151.333 266.1089)" font-family="'Arial-BoldMT'" font-size="18">U</text>
	<text transform="matrix(1 0 0 1 109 219.6343)" font-family="'Arial-BoldMT'" font-size="18">V</text>
</g>
<g id="V_copy">
	<g>
		<path fill="#231F20" d="M24.28,215.3c0-1.41-1.14-2.55-2.55-2.55c-1.41,0-2.55,1.14-2.55,2.55s1.14,2.55,2.55,2.55
			C23.13,217.85,24.28,216.71,24.28,215.3L24.28,215.3z"/>
		<polygon fill="#231F20" points="14.84,200.19 47.24,215.3 14.84,230.41 14.84,227.03 42.1,214.32 14.84,201.6 		"/>
	</g>
	<g>
		<path fill="#231F20" d="M50.79,241.97c0-1.41-1.14-2.55-2.55-2.55s-2.55,1.14-2.55,2.55c0,1.41,1.14,2.55,2.55,2.55
			S50.79,243.38,50.79,241.97L50.79,241.97z"/>
		<polygon fill="#231F20" points="59.97,248.86 47.25,221.59 34.53,248.86 33.13,248.86 48.24,216.46 63.34,248.86 		"/>
	</g>
	<g>
		<path fill="#231F20" d="M77.3,215.46c0-1.41-1.14-2.55-2.55-2.55c-1.41,0-2.55,1.14-2.55,2.55s1.14,2.55,2.55,2.55
			C76.16,218.01,77.3,216.86,77.3,215.46L77.3,215.46z"/>
		<polygon fill="#231F20" points="81.64,203.72 54.37,216.44 81.64,229.16 81.64,230.56 49.24,215.46 81.64,200.35 		"/>
	</g>
	<g>
		<path fill="#231F20" d="M50.79,188.79c0-1.41-1.14-2.55-2.55-2.55s-2.55,1.14-2.55,2.55s1.14,2.55,2.55,2.55
			S50.79,190.2,50.79,188.79L50.79,188.79z"/>
		<polygon fill="#231F20" points="63.35,181.9 61.94,181.9 49.22,209.17 36.51,181.9 33.13,181.9 48.24,214.3 		"/>
	</g>
	<text transform="matrix(1 0 0 1 41.2363 175.4424)" font-family="'Arial-BoldMT'" font-size="18">O</text>
	<text transform="matrix(1 0 0 1 85.3335 219.6343)" font-family="'Arial-BoldMT'" font-size="18">P</text>
	<text transform="matrix(1 0 0 1 42.333 265.1089)" font-family="'Arial-BoldMT'" font-size="18">Q</text>
	<text transform="matrix(1 0 0 1 0 219.6343)" font-family="'Arial-BoldMT'" font-size="18">R</text>
</g>
</svg>
