<?xml version="1.0" encoding="utf-8"?>
<!-- Generator: Adobe Illustrator 15.1.0, SVG Export Plug-In . SVG Version: 6.00 Build 0)  -->
<!DOCTYPE svg PUBLIC "-//W3C//DTD SVG 1.1//EN" "http://www.w3.org/Graphics/SVG/1.1/DTD/svg11.dtd">
<svg version="1.1" id="ModelSketch_x5F_Visible" xmlns="http://www.w3.org/2000/svg" xmlns:xlink="http://www.w3.org/1999/xlink"
	 x="0px" y="0px" width="731.739px" height="111.886px" viewBox="0 -1.328 731.739 111.886"
	 enable-background="new 0 -1.328 731.739 111.886" xml:space="preserve">
<g id="Diamonds_copy">
	<g>
		<path fill="#231F20" d="M684.283,33.052c0-1.069-0.87-1.949-1.95-1.949c-1.07,0-1.939,0.869-1.939,1.949s0.869,1.94,1.939,1.94
			C683.413,34.993,684.283,34.123,684.283,33.052L684.283,33.052z"/>
		<path fill="#231F20" d="M682.343,19.563l-11.52,8.229l11.52,24.7l11.521-24.7L682.343,19.563z M681.593,48.593l-8.96-19.21
			l10.88-7.779l8,5.72L681.593,48.593z"/>
	</g>
	<g>
		<path fill="#231F20" d="M684.283,73.593c0-1.069-0.87-1.939-1.95-1.939c-1.07,0-1.939,0.87-1.939,1.939
			c0,1.07,0.869,1.94,1.939,1.94C683.413,75.533,684.283,74.663,684.283,73.593L684.283,73.593z"/>
		<path fill="#231F20" d="M682.343,54.143l-11.52,24.699l11.52,8.23l11.521-8.23L682.343,54.143z M681.173,85.043l-8-5.72
			l9.92-21.271l8.961,19.21L681.173,85.043z"/>
	</g>
	<g>
		<path fill="#231F20" d="M704.503,53.383c0-1.069-0.87-1.95-1.939-1.95c-1.07,0-1.94,0.87-1.94,1.95s0.87,1.94,1.94,1.94
			C703.623,55.323,704.503,54.453,704.503,53.383L704.503,53.383z"/>
		<path fill="#231F20" d="M707.804,41.863l-24.701,11.52l24.701,11.521l8.229-11.521L707.804,41.863z M706.233,63.093l-19.211-8.96
			l21.271-9.92l5.72,8L706.233,63.093z"/>
	</g>
	<g>
		<path fill="#231F20" d="M664.073,53.262c0-1.069-0.87-1.939-1.95-1.939s-1.94,0.87-1.94,1.939c0,1.07,0.871,1.94,1.94,1.94
			S664.073,54.333,664.073,53.262L664.073,53.262z"/>
		<path fill="#231F20" d="M656.873,41.743l-8.229,11.52l8.229,11.521l24.7-11.521L656.873,41.743z M650.673,52.093l5.721-8
			l21.27,9.92l-19.21,8.96L650.673,52.093z"/>
	</g>
	<text transform="matrix(1 0 0 1 676.6064 14.1145)" font-family="'Arial-BoldMT'" font-size="18">X</text>
	<text transform="matrix(1 0 0 1 719.7061 59.3059)" font-family="'Arial-BoldMT'" font-size="18">Y</text>
	<text transform="matrix(1 0 0 1 676.7061 103.7815)" font-family="'Arial-BoldMT'" font-size="18">W</text>
	<text transform="matrix(1 0 0 1 633.373 59.3059)" font-family="'Arial-BoldMT'" font-size="18">Z</text>
</g>
<g id="Triangles_copy">
	<g>
		<path fill="#231F20" d="M575.95,79.643c0-1.41-1.141-2.551-2.55-2.551c-1.41,0-2.55,1.141-2.55,2.551c0,1.409,1.14,2.55,2.55,2.55
			C574.81,82.193,575.95,81.052,575.95,79.643L575.95,79.643z"/>
		<path fill="#231F20" d="M573.4,54.133l-15.11,32.4h30.221L573.4,54.133z M573.4,57.143l12.27,26.319h-24.55L573.4,57.143z"/>
	</g>
	<g>
		<path fill="#231F20" d="M549.431,52.972c0-1.409-1.141-2.55-2.551-2.55s-2.55,1.141-2.55,2.55c0,1.41,1.14,2.551,2.55,2.551
			S549.431,54.383,549.431,52.972L549.431,52.972z"/>
		<path fill="#231F20" d="M540,37.863v30.22l32.4-15.11L540,37.863z M543.06,40.703l26.32,12.27l-26.32,12.271V40.703z"/>
	</g>
	<g>
		<path fill="#231F20" d="M602.46,53.133c0-1.41-1.14-2.55-2.55-2.55s-2.55,1.14-2.55,2.55s1.14,2.55,2.55,2.55
			S602.46,54.533,602.46,53.133L602.46,53.133z"/>
		<path fill="#231F20" d="M574.4,53.133l32.399,15.11v-30.22L574.4,53.133z M603.74,65.403l-26.32-12.271l26.32-12.27V65.403
			L603.74,65.403z"/>
	</g>
	<g>
		<path fill="#231F20" d="M575.95,26.463c0-1.41-1.141-2.55-2.55-2.55c-1.41,0-2.55,1.14-2.55,2.55s1.14,2.55,2.55,2.55
			C574.81,29.012,575.95,27.873,575.95,26.463L575.95,26.463z"/>
		<path fill="#231F20" d="M558.29,19.573l15.11,32.399l15.11-32.399H558.29z M561.12,22.633h24.55l-12.27,26.32L561.12,22.633z"/>
	</g>
	<text transform="matrix(1 0 0 1 566.3936 14.1145)" font-family="'Arial-BoldMT'" font-size="18">S</text>
	<text transform="matrix(1 0 0 1 609.4932 59.3059)" font-family="'Arial-BoldMT'" font-size="18">T</text>
	<text transform="matrix(1 0 0 1 566.4932 103.7815)" font-family="'Arial-BoldMT'" font-size="18">U</text>
	<text transform="matrix(1 0 0 1 524.1602 59.3059)" font-family="'Arial-BoldMT'" font-size="18">V</text>
</g>
<g id="V_copy">
	<g>
		<path fill="#231F20" d="M437.866,53.972c0-1.409-1.141-2.55-2.551-2.55s-2.549,1.141-2.549,2.55c0,1.41,1.139,2.551,2.549,2.551
			C436.716,56.523,437.866,55.383,437.866,53.972L437.866,53.972z"/>
		<polygon fill="#231F20" points="428.426,38.863 460.826,53.972 428.426,69.083 428.426,65.703 455.687,52.993 428.426,40.273 		
			"/>
	</g>
	<g>
		<path fill="#231F20" d="M464.376,80.643c0-1.41-1.141-2.551-2.55-2.551c-1.41,0-2.55,1.141-2.55,2.551
			c0,1.409,1.14,2.55,2.55,2.55C463.235,83.193,464.376,82.052,464.376,80.643L464.376,80.643z"/>
		<polygon fill="#231F20" points="473.556,87.533 460.836,60.262 448.116,87.533 446.716,87.533 461.826,55.133 476.926,87.533 		
			"/>
	</g>
	<g>
		<path fill="#231F20" d="M490.886,54.133c0-1.41-1.14-2.55-2.55-2.55s-2.55,1.14-2.55,2.55s1.14,2.55,2.55,2.55
			S490.886,55.533,490.886,54.133L490.886,54.133z"/>
		<polygon fill="#231F20" points="495.226,42.393 467.956,55.113 495.226,67.833 495.226,69.233 462.826,54.133 495.226,39.023 		
			"/>
	</g>
	<g>
		<path fill="#231F20" d="M464.376,27.463c0-1.41-1.141-2.55-2.55-2.55c-1.41,0-2.55,1.14-2.55,2.55s1.14,2.55,2.55,2.55
			C463.235,30.012,464.376,28.873,464.376,27.463L464.376,27.463z"/>
		<polygon fill="#231F20" points="476.937,20.573 475.526,20.573 462.806,47.843 450.096,20.573 446.716,20.573 461.826,52.972 		
			"/>
	</g>
	<text transform="matrix(1 0 0 1 454.8213 14.1145)" font-family="'Arial-BoldMT'" font-size="18">O</text>
	<text transform="matrix(1 0 0 1 498.9189 59.3059)" font-family="'Arial-BoldMT'" font-size="18">P</text>
	<text transform="matrix(1 0 0 1 455.9189 103.7815)" font-family="'Arial-BoldMT'" font-size="18">Q</text>
	<text transform="matrix(1 0 0 1 413.585 59.3059)" font-family="'Arial-BoldMT'" font-size="18">R</text>
</g>
<g>
	<text transform="matrix(1 0 0 1 363.5889 27.4626)" font-family="'Arial-BoldMT'" font-size="18">N</text>
	<g enable-background="new    ">
		<path d="M360.187,38.933l9.445,13.635l9.674-13.635h2.59l-10.932,15.311c7.693,10.563,11.541,15.856,11.541,15.882h-2.514
			L369.708,55.31c-8.05,9.877-12.087,14.815-12.111,14.815h-2.4l12.645-16.453l-10.092-14.739h0.381H360.187z"/>
	</g>
</g>
<g id="Diamonds">
	<g>
		<path fill="#231F20" d="M268.933,19.563l-11.52,8.229l11.52,24.7l11.521-24.7L268.933,19.563z M268.183,48.593l-8.96-19.21
			l10.88-7.779l8,5.72L268.183,48.593z"/>
	</g>
	<g>
		<path fill="#231F20" d="M268.933,54.142l-11.52,24.7l11.52,8.23l11.521-8.23L268.933,54.142z M267.763,85.043l-8-5.72l9.92-21.271
			l8.961,19.21L267.763,85.043z"/>
	</g>
	<g>
		<path fill="#231F20" d="M294.394,41.863l-24.701,11.52l24.701,11.521l8.229-11.521L294.394,41.863z M292.823,63.093l-19.211-8.96
			l21.271-9.92l5.72,8L292.823,63.093z"/>
	</g>
	<g>
		<path fill="#231F20" d="M243.463,41.743l-8.229,11.52l8.229,11.521l24.7-11.521L243.463,41.743z M237.263,52.093l5.721-8
			l21.27,9.92l-19.21,8.96L237.263,52.093z"/>
	</g>
	<text transform="matrix(1 0 0 1 259.1934 14.115)" font-family="'Arial-BoldMT'" font-size="18">I/J</text>
	<text transform="matrix(1 0 0 1 306.2959 59.3054)" font-family="'Arial-BoldMT'" font-size="18">K</text>
	<text transform="matrix(1 0 0 1 263.2959 103.782)" font-family="'Arial-BoldMT'" font-size="18">L</text>
	<text transform="matrix(1 0 0 1 217.9629 59.3054)" font-family="'Arial-BoldMT'" font-size="18">M</text>
</g>
<g id="Triangles">
	<g>
		<path fill="#231F20" d="M160.474,54.133l-15.11,32.4h30.221L160.474,54.133z M160.474,57.142l12.27,26.32h-24.55L160.474,57.142z"
			/>
	</g>
	<g>
		<path fill="#231F20" d="M127.073,37.863v30.22l32.4-15.11L127.073,37.863z M130.133,40.703l26.32,12.27l-26.32,12.271V40.703z"/>
	</g>
	<g>
		<path fill="#231F20" d="M161.474,53.133l32.399,15.11v-30.22L161.474,53.133z M190.813,65.403l-26.32-12.271l26.32-12.27V65.403
			L190.813,65.403z"/>
	</g>
	<g>
		<path fill="#231F20" d="M145.363,19.573l15.11,32.399l15.11-32.399H145.363z M148.193,22.633h24.55l-12.27,26.32L148.193,22.633z"
			/>
	</g>
	<text transform="matrix(1 0 0 1 152.9707 14.115)" font-family="'Arial-BoldMT'" font-size="18">H</text>
	<text transform="matrix(1 0 0 1 196.5674 59.3054)" font-family="'Arial-BoldMT'" font-size="18">F</text>
	<text transform="matrix(1 0 0 1 153.5664 103.782)" font-family="'Arial-BoldMT'" font-size="18">G</text>
	<text transform="matrix(1 0 0 1 111.2334 59.3054)" font-family="'Arial-BoldMT'" font-size="18">E</text>
</g>
<g id="V">
	<g>
		<polygon fill="#231F20" points="14.84,39.018 47.24,54.128 14.84,69.238 14.84,65.858 42.1,53.148 14.84,40.428 		"/>
	</g>
	<g>
		<polygon fill="#231F20" points="59.976,87.533 47.255,60.262 34.535,87.533 33.135,87.533 48.245,55.133 63.345,87.533 		"/>
	</g>
	<g>
		<polygon fill="#231F20" points="81.64,42.392 54.37,55.113 81.64,67.833 81.64,69.233 49.24,54.133 81.64,39.023 		"/>
	</g>
	<g>
		<polygon fill="#231F20" points="63.35,20.573 61.94,20.573 49.22,47.843 36.51,20.573 33.13,20.573 48.24,52.972 		"/>
	</g>
	<text transform="matrix(1 0 0 1 41.7783 14.115)" font-family="'Arial-BoldMT'" font-size="18">A</text>
	<text transform="matrix(1 0 0 1 85.3335 59.3054)" font-family="'Arial-BoldMT'" font-size="18">B</text>
	<text transform="matrix(1 0 0 1 41.7402 103.782)" font-family="'Arial-BoldMT'" font-size="18">C</text>
	<text transform="matrix(1 0 0 1 0 59.3054)" font-family="'Arial-BoldMT'" font-size="18">D</text>
</g>
</svg>
